<?xml version="1.0" encoding="UTF-8"?>
<svg version="1.1" xmlns="http://www.w3.org/2000/svg" width="500" height="500">
<path d="M0 0 C10.98345925 7.46102374 16.08189988 15.9839809 20.19921875 28.3359375 C20.70767952 37.03843919 20.97788433 45.29622351 17.19921875 53.3359375 C16.88597656 54.04234375 16.57273437 54.74875 16.25 55.4765625 C14.35936078 59.51191894 12.27105902 63.05930788 9.19921875 66.3359375 C8.53921875 66.3359375 7.87921875 66.3359375 7.19921875 66.3359375 C7.19921875 66.9959375 7.19921875 67.6559375 7.19921875 68.3359375 C4.88921875 69.9859375 2.57921875 71.6359375 0.19921875 73.3359375 C15.70921875 73.3359375 31.21921875 73.3359375 47.19921875 73.3359375 C42.74421875 69.8709375 42.74421875 69.8709375 38.19921875 66.3359375 C30.14962003 55.60313921 26.26921922 43.94919579 27.5703125 30.5 C30.12981563 17.16744697 36.17395407 7.89467471 47.29296875 0.140625 C56.92838119 -5.8426553 68.94575142 -6.07491162 79.94140625 -4.1953125 C85.73507977 -2.46339586 91.37551051 0.72067391 96.19921875 4.3359375 C96.19921875 4.9959375 96.19921875 5.6559375 96.19921875 6.3359375 C96.79734375 6.5834375 97.39546875 6.8309375 98.01171875 7.0859375 C103.69266566 10.33219288 107.28999015 18.37175783 109.50390625 24.34375 C112.27682271 36.27663767 110.69721585 48.75245464 104.4453125 59.29296875 C102.79105316 61.76227026 101.18555343 64.12455013 99.19921875 66.3359375 C98.53921875 66.3359375 97.87921875 66.3359375 97.19921875 66.3359375 C97.19921875 66.9959375 97.19921875 67.6559375 97.19921875 68.3359375 C95.23046875 69.84375 95.23046875 69.84375 92.69921875 71.4609375 C91.86390625 71.99976563 91.02859375 72.53859375 90.16796875 73.09375 C89.51828125 73.50367188 88.86859375 73.91359375 88.19921875 74.3359375 C89.08673828 74.69945312 89.08673828 74.69945312 89.9921875 75.0703125 C94.55984506 77.00765502 98.58163531 78.8350503 102.19921875 82.3359375 C102.19921875 82.9959375 102.19921875 83.6559375 102.19921875 84.3359375 C102.85921875 84.3359375 103.51921875 84.3359375 104.19921875 84.3359375 C106.11224182 87.60207445 106.55596536 90.33038998 106.82421875 94.0859375 C106.93636719 95.56320313 106.93636719 95.56320313 107.05078125 97.0703125 C107.12425781 98.19179687 107.12425781 98.19179687 107.19921875 99.3359375 C108.24980469 98.74425781 109.30039062 98.15257812 110.3828125 97.54296875 C125.16610512 89.22031355 125.16610512 89.22031355 129.71484375 86.734375 C131.8715102 85.52040238 133.99623002 84.26832177 136.12109375 83 C136.83201172 82.58298828 137.54292969 82.16597656 138.27539062 81.73632812 C139.70027312 80.90034585 141.11858231 80.05303426 142.52929688 79.19335938 C147.46624418 76.32191886 147.46624418 76.32191886 151.05859375 76.390625 C153.19921875 77.3359375 153.19921875 77.3359375 155.19921875 80.3359375 C155.40336911 82.85133409 155.49294795 85.25695856 155.48974609 87.77319336 C155.49646332 88.52798477 155.50318054 89.28277618 155.51010132 90.06044006 C155.52911019 92.55728728 155.53300681 95.05386616 155.53515625 97.55078125 C155.54158174 99.28569144 155.54830992 101.02060053 155.55532837 102.75550842 C155.56730804 106.39293938 155.57100844 110.03027531 155.56982422 113.66772461 C155.56962089 118.32974642 155.596934 122.99115959 155.63136864 127.65303707 C155.6535999 131.2364024 155.65766294 134.81962032 155.65660477 138.40304756 C155.658966 140.12186343 155.66781888 141.84068303 155.6832695 143.55943108 C155.70285565 145.96315093 155.6971217 148.36554615 155.68505859 150.76928711 C155.69629761 151.47955048 155.70753662 152.18981384 155.71911621 152.92160034 C155.67571111 156.3233778 155.40123099 158.06954782 153.32022095 160.81373596 C151.19921875 162.3359375 151.19921875 162.3359375 148.77734375 162.2578125 C145.98129367 161.25801277 143.53260187 160.05136535 140.94921875 158.5859375 C139.99917969 158.05226563 139.04914063 157.51859375 138.0703125 156.96875 C137.12285156 156.42992187 136.17539062 155.89109375 135.19921875 155.3359375 C133.4709166 154.37604594 131.74183398 153.4175573 130.01171875 152.4609375 C128.74063719 151.7530497 127.46970202 151.04489853 126.19921875 150.3359375 C126.19921875 149.6759375 126.19921875 149.0159375 126.19921875 148.3359375 C125.4928125 148.243125 124.78640625 148.1503125 124.05859375 148.0546875 C120.66760704 147.20230833 118.36274476 145.75728979 115.44921875 143.8359375 C114.485 143.206875 113.52078125 142.5778125 112.52734375 141.9296875 C110.19921875 140.3359375 110.19921875 140.3359375 109.19921875 139.3359375 C109.11671875 140.6353125 109.03421875 141.9346875 108.94921875 143.2734375 C108.06457731 151.07548351 105.23834955 157.20267632 99.19921875 162.3359375 C98.55984375 162.8928125 97.92046875 163.4496875 97.26171875 164.0234375 C90.87947233 168.08486704 84.1339345 167.63212421 76.83496094 167.62646484 C75.5919371 167.63318207 74.34891327 167.63989929 73.06822205 167.64682007 C69.66917898 167.66253534 66.27038033 167.66917354 62.87131786 167.67045164 C60.74348857 167.67187674 58.61568461 167.67615319 56.48786163 167.68144608 C49.05227543 167.69993293 41.61676077 167.70811862 34.18115234 167.70654297 C27.27035448 167.70534281 20.35986954 167.72642373 13.4491508 167.7580303 C7.49986336 167.78426162 1.55067767 167.79490736 -4.3986671 167.79363215 C-7.94475619 167.79312441 -11.49056716 167.79870237 -15.03659821 167.81998825 C-18.99750254 167.8431165 -22.95798466 167.83380786 -26.91894531 167.82177734 C-28.07981155 167.83301636 -29.2406778 167.84425537 -30.4367218 167.85583496 C-38.05688172 167.79721483 -45.55657243 166.94831625 -51.57468033 161.82611656 C-52.80078125 160.3359375 -52.80078125 160.3359375 -52.80078125 158.3359375 C-53.46078125 158.3359375 -54.12078125 158.3359375 -54.80078125 158.3359375 C-59.2797247 151.16606973 -59.38613861 145.03754927 -59.33203125 136.7109375 C-59.33585815 135.40946777 -59.33968506 134.10799805 -59.34362793 132.76708984 C-59.34949599 130.02356789 -59.34104862 127.28056997 -59.32226562 124.53710938 C-59.29947633 121.04017412 -59.31261416 117.54446721 -59.33655548 114.0475769 C-59.35457767 110.68526827 -59.34191805 107.3232809 -59.33203125 103.9609375 C-59.34012817 102.71489746 -59.3482251 101.46885742 -59.35656738 100.18505859 C-59.28052356 93.09962107 -58.5769151 88.38075157 -54.80078125 82.3359375 C-54.14078125 82.3359375 -53.48078125 82.3359375 -52.80078125 82.3359375 C-52.80078125 81.6759375 -52.80078125 81.0159375 -52.80078125 80.3359375 C-51.38749996 79.51756308 -49.96999779 78.70647531 -48.55078125 77.8984375 C-47.761875 77.44597656 -46.97296875 76.99351562 -46.16015625 76.52734375 C-44.01244657 75.44282148 -42.14873064 74.80445034 -39.80078125 74.3359375 C-40.50203125 73.88605469 -41.20328125 73.43617188 -41.92578125 72.97265625 C-51.85118204 66.2433424 -58.99568856 58.61140097 -61.40234375 46.578125 C-63.00597582 33.52896204 -62.24203697 22.2736021 -54.4609375 11.43359375 C-41.68645268 -4.70734355 -18.34964836 -10.90230154 0 0 Z " fill="#CF3A25" transform="translate(205.80078125,101.6640625)"/>
<path d="M0 0 C1.15435547 -0.03738281 2.30871094 -0.07476562 3.49804688 -0.11328125 C12.00318453 -0.20213353 12.00318453 -0.20213353 15.28125 2.5625 C15.7453125 3.490625 16.209375 4.41875 16.6875 5.375 C17.21730469 6.22835938 17.74710937 7.08171875 18.29296875 7.9609375 C19.07607422 9.34152344 19.07607422 9.34152344 19.875 10.75 C22.55866915 15.42496311 25.28230047 20.06965346 28.0625 24.6875 C28.44180664 25.317771 28.82111328 25.94804199 29.21191406 26.59741211 C29.98606082 27.88368923 30.76031249 29.16990321 31.53466797 30.45605469 C32.66380032 32.33555072 33.78784623 34.21798608 34.91015625 36.1015625 C38.86214438 42.7278192 42.87426393 49.31077507 46.97265625 55.84765625 C47.42902466 56.57666138 47.88539307 57.3056665 48.35559082 58.0567627 C49.46567959 59.82985144 50.57651088 61.60247527 51.6875 63.375 C51.69780746 62.61522858 51.70811493 61.85545715 51.71873474 61.07266235 C51.81661217 53.92116045 51.91911256 46.769747 52.02683926 39.61838722 C52.08206189 35.94158571 52.13548081 32.26477624 52.18481445 28.58789062 C52.23246779 25.04114134 52.28481091 21.49448974 52.34044075 17.9478569 C52.36085992 16.5930664 52.37957374 15.23824912 52.39657402 13.88341141 C52.42062739 11.98943211 52.45124383 10.09553957 52.48217773 8.20166016 C52.49772202 7.12244293 52.5132663 6.04322571 52.52928162 4.93130493 C52.6875 2.375 52.6875 2.375 53.6875 0.375 C61.2775 0.375 68.8675 0.375 76.6875 0.375 C76.6875 35.685 76.6875 70.995 76.6875 107.375 C67.7775 107.375 58.8675 107.375 49.6875 107.375 C44.73098181 101.94392156 43.05944598 99.77041881 40.6875 93.375 C39.82300011 91.77434334 38.93182362 90.18742329 38 88.625 C37.63132812 87.93792969 37.26265625 87.25085938 36.8828125 86.54296875 C34.98572958 83.1021811 32.89736431 79.77828285 30.82421875 76.44140625 C29.6875 74.375 29.6875 74.375 29.6875 72.375 C29.0275 72.375 28.3675 72.375 27.6875 72.375 C23.6875 65.75 23.6875 65.75 23.6875 62.375 C23.0275 62.375 22.3675 62.375 21.6875 62.375 C21.31238281 61.67375 20.93726563 60.9725 20.55078125 60.25 C20.03902344 59.30125 19.52726562 58.3525 19 57.375 C18.25169922 55.9828125 18.25169922 55.9828125 17.48828125 54.5625 C15.34164598 50.76281588 13.00048499 47.07577598 10.6875 43.375 C10.3575 64.495 10.0275 85.615 9.6875 107.375 C2.4275 107.375 -4.8325 107.375 -12.3125 107.375 C-13.85260687 105.83489313 -13.43843583 104.4210141 -13.43948364 102.27526855 C-13.44230347 101.39185287 -13.44512329 100.50843719 -13.44802856 99.59825134 C-13.44600433 98.62159012 -13.4439801 97.64492889 -13.44189453 96.63867188 C-13.44364685 95.61600723 -13.44539917 94.59334259 -13.44720459 93.53968811 C-13.45162527 90.14102508 -13.44868435 86.74241361 -13.4453125 83.34375 C-13.44598548 80.99344879 -13.44695545 78.64314765 -13.44821167 76.29284668 C-13.44968894 71.35977518 -13.44753316 66.42672175 -13.44287109 61.49365234 C-13.4371738 55.15449333 -13.44045265 48.81537664 -13.44644356 42.47621918 C-13.45004839 37.62082599 -13.44891094 32.76544292 -13.44631577 27.91004944 C-13.44564628 25.57194514 -13.44647566 23.23383994 -13.44879532 20.89573669 C-13.45132057 17.63424223 -13.44748304 14.37281737 -13.44189453 11.11132812 C-13.44493088 9.64633629 -13.44493088 9.64633629 -13.44802856 8.15174866 C-13.44520874 7.26833298 -13.44238892 6.3849173 -13.43948364 5.47473145 C-13.43910662 4.70264595 -13.43872959 3.93056046 -13.43834114 3.13507843 C-13.07627993 -1.92889443 -3.74931186 0.04559694 0 0 Z " fill="#CE3E2A" transform="translate(246.3125,284.625)"/>
<path d="M0 0 C0.02887236 3.81248426 0.04675492 7.6249407 0.0625 11.4375 C0.07087891 12.52611328 0.07925781 13.61472656 0.08789062 14.73632812 C0.09111328 15.77080078 0.09433594 16.80527344 0.09765625 17.87109375 C0.10289307 18.82943115 0.10812988 19.78776855 0.11352539 20.77514648 C0 23 0 23 -1 24 C-4.38062361 24.43822899 -7.62266817 24.47187211 -11 24 C-13.5625 21.8125 -13.5625 21.8125 -16 19 C-22.00700442 15.19556387 -26.60099314 12.84049376 -33.75 12.75 C-35.56757813 12.71132813 -35.56757813 12.71132813 -37.421875 12.671875 C-41.29472079 13.0270268 -43.61566613 14.16279019 -47 16 C-47.99 16 -48.98 16 -50 16 C-50 16.66 -50 17.32 -50 18 C-50.66 18 -51.32 18 -52 18 C-52 18.66 -52 19.32 -52 20 C-52.66 20 -53.32 20 -54 20 C-54 20.66 -54 21.32 -54 22 C-54.66 22 -55.32 22 -56 22 C-56.71372719 23.64706275 -57.36236461 25.32201212 -58 27 C-58.26425781 27.68191406 -58.52851562 28.36382812 -58.80078125 29.06640625 C-62.29112104 39.10733634 -62.45694945 49.65596417 -58.328125 59.52734375 C-54.9583384 65.80109351 -49.93600531 71.7184193 -43 74 C-32.60588829 75.93812857 -24.03441689 74.52936304 -15 69 C-13.8965854 68.10760709 -12.81168977 67.19164947 -11.75 66.25 C-9 64 -9 64 -5 64 C-1.74567082 66.07033543 0.25376683 68.57969206 2 72 C2.58925453 77.07783684 2.41705071 81.91595322 2 87 C-13.23370521 95.97831901 -28.88467757 100.69446502 -46.6015625 97.3125 C-55.27115134 94.82956286 -64.08066427 90.89661636 -71 85 C-71 84.34 -71 83.68 -71 83 C-71.66 83 -72.32 83 -73 83 C-74.56392239 81.07377899 -75.97993355 79.1691126 -77.375 77.125 C-77.77912109 76.53581787 -78.18324219 75.94663574 -78.59960938 75.33959961 C-87.97338857 61.30361864 -88.78616033 44.85472868 -86.50390625 28.4296875 C-83.10357964 14.94364636 -74.11784201 4.02308311 -62.59375 -3.53515625 C-42.02912682 -15.14921301 -19.55926537 -11.42949737 0 0 Z " fill="#CD3A27" transform="translate(183,296)"/>
<path d="M0 0 C0.93328125 -0.01546875 1.8665625 -0.0309375 2.828125 -0.046875 C9.37891325 -0.01027842 14.24847552 1.38281574 20 4.5 C20 5.16 20 5.82 20 6.5 C20.804375 6.768125 21.60875 7.03625 22.4375 7.3125 C23.7059375 7.9003125 23.7059375 7.9003125 25 8.5 C25.495 9.985 25.495 9.985 26 11.5 C26.66 11.5 27.32 11.5 28 11.5 C35.71276333 21.20315387 36.64347713 33.50104401 36 45.5 C35 46.5 35 46.5 32.98155212 46.62025452 C32.09552811 46.61803391 31.20950409 46.61581329 30.29663086 46.61352539 C29.29566879 46.61344986 28.29470673 46.61337433 27.26341248 46.61329651 C26.1748848 46.60813522 25.08635712 46.60297394 23.96484375 46.59765625 C22.85645645 46.5962413 21.74806915 46.59482635 20.60609436 46.59336853 C17.04986931 46.58775033 13.49370617 46.57519475 9.9375 46.5625 C7.53320403 46.55748734 5.12890708 46.55292403 2.72460938 46.54882812 C-3.18361777 46.53777499 -9.09179837 46.52049816 -15 46.5 C-14.34 49.8 -13.68 53.1 -13 56.5 C-12.34 56.5 -11.68 56.5 -11 56.5 C-10.34 57.49 -9.68 58.48 -9 59.5 C-2.54352028 62.78693513 2.93208454 63.10191652 10 61.5 C13.99875598 59.39156503 16.93410514 56.80173293 20 53.5 C25.23272633 55.13958758 30.15196636 56.88952035 35 59.5 C34.46968862 64.0076467 32.74778884 66.91954788 30 70.5 C29.34 70.5 28.68 70.5 28 70.5 C28 71.16 28 71.82 28 72.5 C18.04537355 80.1036402 7.35918942 82.64896987 -5 81.5 C-8.18228714 80.82644843 -11.03327849 79.82292135 -14 78.5 C-14.71027344 78.18675781 -15.42054688 77.87351562 -16.15234375 77.55078125 C-20.18000695 75.65320436 -23.72598311 73.56939083 -27 70.5 C-27 69.84 -27 69.18 -27 68.5 C-27.66 68.5 -28.32 68.5 -29 68.5 C-36.94329553 58.49897053 -39.30224345 45.98969851 -38 33.5 C-35.68668633 21.65803719 -30.05798123 11.41791633 -20 4.5 C-13.38018191 0.69172634 -7.55404841 -0.12520522 0 0 Z M-10 20.5 C-12.48130058 23.52130814 -13.76633127 26.7989938 -15 30.5 C-4.77 30.5 5.46 30.5 16 30.5 C12.75420081 22.38787737 12.75420081 22.38787737 5.9921875 17.609375 C-0.10632962 15.78194478 -4.84523312 16.76046972 -10 20.5 Z " fill="#CB3B27" transform="translate(370,312.5)"/>
<path d="M0 0 C9.9 0 19.8 0 30 0 C30 24.09 30 48.18 30 73 C22.08 73 14.16 73 6 73 C6 53.53 6 34.06 6 14 C4.02 14 2.04 14 0 14 C0 9.38 0 4.76 0 0 Z " fill="#C93F2C" transform="translate(192,319)"/>
<path d="M0 0 C3.2186267 2.1213676 4.36898801 3.20652425 5.75 6.8125 C6.27750647 11.97034101 6.39921719 16.24233649 3.75 20.8125 C3.09 20.8125 2.43 20.8125 1.75 20.8125 C1.75 21.4725 1.75 22.1325 1.75 22.8125 C-2.81782267 25.41668396 -7.10205353 25.73628794 -12.25 24.8125 C-16.22857779 22.5441382 -18.7949891 20.17753271 -20.25 15.8125 C-20.63438818 11.12296415 -20.70895659 8.74806536 -18.625 4.5 C-13.37205908 -1.44411735 -7.42560699 -2.71320255 0 0 Z " fill="#CB4634" transform="translate(216.25,287.1875)"/>
<path d="M0 0 C0.33 0 0.66 0 1 0 C1.33 33.66 1.66 67.32 2 102 C7.61 102 13.22 102 19 102 C19 80.55 19 59.1 19 37 C19.99 36.505 19.99 36.505 21 36 C21 58.44 21 80.88 21 104 C14.07 104 7.14 104 0 104 C0 69.68 0 35.36 0 0 Z " fill="#A93323" transform="translate(234,287)"/>
<path d="M0 0 C0.33 0 0.66 0 1 0 C1 34.65 1 69.3 1 105 C-7.91 105 -16.82 105 -26 105 C-26.99 103.02 -27.98 101.04 -29 99 C-27.02 98.01 -27.02 98.01 -25 97 C-25 98.65 -25 100.3 -25 102 C-17.08 102 -9.16 102 -1 102 C-1.01160156 99.24527344 -1.02320313 96.49054688 -1.03515625 93.65234375 C-1.13413181 62.42441405 -0.66896794 31.22020696 0 0 Z " fill="#A14336" transform="translate(322,287)"/>
<path d="M0 0 C0.66 0.33 1.32 0.66 2 1 C2 1.66 2 2.32 2 3 C3.65 2.67 5.3 2.34 7 2 C6.67 5.3 6.34 8.6 6 12 C7.98 12.66 9.96 13.32 12 14 C12 14.66 12 15.32 12 16 C8.69869907 18.20086729 7.81909425 18.36103697 4 18 C1.32421875 17.125 1.32421875 17.125 -1.3125 16 C-2.19550781 15.62875 -3.07851562 15.2575 -3.98828125 14.875 C-4.65214844 14.58625 -5.31601563 14.2975 -6 14 C-6 10.7 -6 7.4 -6 4 C-5.34 4 -4.68 4 -4 4 C-4 3.34 -4 2.68 -4 2 C-2.125 0.9375 -2.125 0.9375 0 0 Z " fill="#CB3B27" transform="translate(203,292)"/>
<path d="M0 0 C1.32 0 2.64 0 4 0 C4 0.99 4 1.98 4 3 C3.34 3 2.68 3 2 3 C1.28627281 4.64706275 0.63763539 6.32201212 0 8 C-0.39638672 9.02287109 -0.39638672 9.02287109 -0.80078125 10.06640625 C-4.31508593 20.17627801 -4.38193509 30.57398853 -0.2890625 40.51171875 C1.70695914 44.36464538 4.17684169 47.71572583 7 51 C6.34 51 5.68 51 5 51 C5 51.66 5 52.32 5 53 C4.34 53 3.68 53 3 53 C2.67 52.34 2.34 51.68 2 51 C1.67 51.66 1.34 52.32 1 53 C-2 52 -2 52 -3.1875 49.9375 C-3.455625 49.298125 -3.72375 48.65875 -4 48 C-3.01 48 -2.02 48 -1 48 C-1.66 46.96875 -2.32 45.9375 -3 44.875 C-4.98869447 41.43490747 -5.27918159 39.00160283 -5 35 C-5.33 34.34 -5.66 33.68 -6 33 C-6.07194869 30.11629667 -6.09291708 27.25760336 -6.0625 24.375 C-6.05798828 23.57320313 -6.05347656 22.77140625 -6.04882812 21.9453125 C-6.03703168 19.96350994 -6.01909605 17.98174567 -6 16 C-5.67 16 -5.34 16 -5 16 C-4.67 13.69 -4.34 11.38 -4 9 C-3.34 9 -2.68 9 -2 9 C-2.04125 7.88625 -2.0825 6.7725 -2.125 5.625 C-2 2 -2 2 0 0 Z " fill="#C66054" transform="translate(125,315)"/>
<path d="M0 0 C0.66 0.33 1.32 0.66 2 1 C0.68 1.33 -0.64 1.66 -2 2 C-1.67 3.65 -1.34 5.3 -1 7 C-2.0725 7.0825 -3.145 7.165 -4.25 7.25 C-8.368532 8.0737064 -9.40047535 8.84343435 -12 12 C-13 13 -14 14 -15 15 C-14.34 15 -13.68 15 -13 15 C-13.33 15.99 -13.66 16.98 -14 18 C-15.66666667 18 -17.33333333 18 -19 18 C-19.33 20.97 -19.66 23.94 -20 27 C-20.66 27 -21.32 27 -22 27 C-22 29.31 -22 31.62 -22 34 C-22.33 34 -22.66 34 -23 34 C-23.33 37.63 -23.66 41.26 -24 45 C-23.34 45 -22.68 45 -22 45 C-21.36605303 49.04141194 -20.87595548 52.9065307 -21 57 C-20.01 57.33 -19.02 57.66 -18 58 C-18.33 59.32 -18.66 60.64 -19 62 C-26.00006297 53.62737566 -25.82103957 41.35422126 -25 31 C-23.28927352 20.56456849 -17.13352137 11.62488434 -9 5 C-6.1168431 3.08421811 -3.2308812 1.26339957 0 0 Z " fill="#C56050" transform="translate(169,99)"/>
<path d="M0 0 C4 0 4 0 5.921875 1.22265625 C11.50223595 6.83878874 11.79383954 12.06269383 11.83203125 19.609375 C11 23 11 23 7.94921875 25.453125 C6.97597656 25.96359375 6.00273437 26.4740625 5 27 C4.34 26.67 3.68 26.34 3 26 C3.33 24.68 3.66 23.36 4 22 C4.66 22.33 5.32 22.66 6 23 C6.33 22.01 6.66 21.02 7 20 C7.66 20 8.32 20 9 20 C8.66009167 14.62007164 8.31442207 10.46726453 5 6 C3.35 6.66 1.7 7.32 0 8 C0 7.34 0 6.68 0 6 C-1.98 6 -3.96 6 -6 6 C-4 4 -2 2 0 0 Z " fill="#C56055" transform="translate(174,360)"/>
<path d="M0 0 C4.0829596 -0.14518182 8.16525641 -0.23403347 12.25 -0.3125 C13.40886719 -0.35439453 14.56773437 -0.39628906 15.76171875 -0.43945312 C24.34749729 -0.56352507 24.34749729 -0.56352507 27.75 2.375 C28.82070213 4.62347447 29.63571706 6.54109014 30 9 C27.625 8.75 27.625 8.75 25 8 C24.34 6.68 23.68 5.36 23 4 C15.74 3.67 8.48 3.34 1 3 C0.67 2.01 0.34 1.02 0 0 Z " fill="#D26A5E" transform="translate(234,285)"/>
<path d="M0 0 C4.23011401 2.82007601 6.57728302 5.50066847 9 10 C9 10.66 9 11.32 9 12 C9.66 12 10.32 12 11 12 C11 12.66 11 13.32 11 14 C11.556875 14.17015625 12.11375 14.3403125 12.6875 14.515625 C18.09590609 16.23315937 22.98062896 18.35342255 28 21 C27.34 21.66 26.68 22.32 26 23 C22.34332436 22.64593124 19.59799484 21.43884922 16.4375 19.625 C15.32181641 18.99464844 15.32181641 18.99464844 14.18359375 18.3515625 C12.00375132 17.00232193 9.9563104 15.65909317 8 14 C8 13.34 8 12.68 8 12 C7.34 12 6.68 12 6 12 C4.2734375 9.8125 4.2734375 9.8125 2.375 7 C1.74335937 6.071875 1.11171875 5.14375 0.4609375 4.1875 C-0.02117187 3.465625 -0.50328125 2.74375 -1 2 C-0.67 1.34 -0.34 0.68 0 0 Z " fill="#C65347" transform="translate(104,367)"/>
<path d="M0 0 C0 0.66 0 1.32 0 2 C-1.6396875 2.4021875 -1.6396875 2.4021875 -3.3125 2.8125 C-6.88150424 3.64517719 -6.88150424 3.64517719 -8.46484375 5.5 C-10.34337106 7.3355076 -11.71324437 7.59765997 -14.25 8.1875 C-19.82266689 9.86568446 -22.62668139 13.43354619 -26 18 C-26.66 17.01 -27.32 16.02 -28 15 C-20.11968348 6.61127596 -11.98844187 0 0 0 Z " fill="#C55548" transform="translate(270,97)"/>
<path d="M0 0 C1.98 0 3.96 0 6 0 C4.625 2.5 4.625 2.5 3 5 C2.34 5 1.68 5 1 5 C1 5.66 1 6.32 1 7 C-1.1171875 8.5078125 -1.1171875 8.5078125 -3.875 10.125 C-4.77992188 10.66382813 -5.68484375 11.20265625 -6.6171875 11.7578125 C-9 13 -9 13 -11 13 C-11.33 11.35 -11.66 9.7 -12 8 C-11.01 7.67 -10.02 7.34 -9 7 C-8.34 6.01 -7.68 5.02 -7 4 C-3.875 3.3125 -3.875 3.3125 -1 3 C-0.67 2.01 -0.34 1.02 0 0 Z " fill="#C64A37" transform="translate(397,378)"/>
<path d="M0 0 C5.23272633 1.63958758 10.15196636 3.38952035 15 6 C14.67 7.65 14.34 9.3 14 11 C12.2925002 9.71937515 10.62626404 8.38232443 9 7 C9 6.34 9 5.68 9 5 C8.0925 5.350625 7.185 5.70125 6.25 6.0625 C2.86163289 7.03991359 2.19775902 6.79943975 -1 6 C-4.19623648 6.87050779 -4.19623648 6.87050779 -7 8 C-7 8.66 -7 9.32 -7 10 C-7.99 9.67 -8.98 9.34 -10 9 C-9.278125 8.443125 -8.55625 7.88625 -7.8125 7.3125 C-5.02542701 5.02090666 -2.51358472 2.58540143 0 0 Z " fill="#C2564B" transform="translate(390,366)"/>
<path d="M0 0 C0.66 0.33 1.32 0.66 2 1 C1.34 3.64 0.68 6.28 0 9 C-0.99 9 -1.98 9 -3 9 C-3 28.47 -3 47.94 -3 68 C-3.33 68 -3.66 68 -4 68 C-4.09300645 60.31526292 -4.16391952 52.63058479 -4.20724869 44.94541168 C-4.22805315 41.37616481 -4.25623769 37.80730526 -4.30175781 34.23828125 C-4.345474 30.78879534 -4.36919071 27.33968008 -4.37950897 23.88993835 C-4.39041005 21.94460818 -4.42159466 19.99942548 -4.45318604 18.05432129 C-4.45499315 10.87282832 -3.85840905 6.11471053 0 0 Z " fill="#BB6657" transform="translate(151,184)"/>
<path d="M0 0 C1.06990273 2.12508202 2.12224807 4.25572301 3.1484375 6.40234375 C5.38295269 11.02081622 7.53697306 15.15219229 11 19 C10.34 19 9.68 19 9 19 C9 19.66 9 20.32 9 21 C8.34 21 7.68 21 7 21 C6.67 20.34 6.34 19.68 6 19 C5.67 19.66 5.34 20.32 5 21 C2 20 2 20 0.8125 17.9375 C0.4103125 16.9784375 0.4103125 16.9784375 0 16 C0.99 16 1.98 16 3 16 C2.319375 15.030625 1.63875 14.06125 0.9375 13.0625 C-1.65965743 8.61543745 -1.01871227 4.88317511 0 0 Z " fill="#C85D53" transform="translate(121,347)"/>
<path d="M0 0 C0.33 0 0.66 0 1 0 C1.01030746 0.66541306 1.02061493 1.33082611 1.03123474 2.0164032 C1.13943141 8.94324304 1.25401876 15.86995628 1.37231445 22.79663086 C1.41562106 25.38156484 1.45729917 27.96652664 1.49731445 30.55151367 C1.55512028 34.26750063 1.61878543 37.98334813 1.68359375 41.69921875 C1.70030624 42.85459641 1.71701874 44.00997406 1.73423767 45.20036316 C1.75418289 46.28110611 1.77412811 47.36184906 1.79467773 48.4753418 C1.81022202 49.42354294 1.8257663 50.37174408 1.84178162 51.34867859 C1.99896335 53.98262851 2.41876205 56.42922317 3 59 C3.66 59 4.32 59 5 59 C5 60.32 5 61.64 5 63 C4.34 63 3.68 63 3 63 C-1.02607958 57.06536367 -0.3815804 50.9033585 -0.29296875 43.9453125 C-0.28872391 42.68862762 -0.28447906 41.43194275 -0.28010559 40.13717651 C-0.26619122 36.81284265 -0.23928624 33.4891377 -0.20599365 30.16497803 C-0.17518246 26.76629034 -0.16157678 23.36753741 -0.14648438 19.96875 C-0.11345021 13.31232749 -0.06327623 6.65620002 0 0 Z " fill="#C33D2E" transform="translate(148,197)"/>
<path d="M0 0 C-1 2 -1 2 -2.6875 2.8125 C-5 3 -5 3 -7.46484375 1.6171875 C-12.18587479 -0.54248858 -16.75549979 -1.05276522 -21.875 -1.6875 C-22.84953125 -1.81705078 -23.8240625 -1.94660156 -24.828125 -2.08007812 C-27.2176664 -2.39634096 -29.60804077 -2.70267813 -32 -3 C-32 -3.33 -32 -3.66 -32 -4 C-21.55669808 -6.54026263 -9.90303427 -3.55493538 0 0 Z " fill="#C56356" transform="translate(172,290)"/>
<path d="M0 0 C0.66 0 1.32 0 2 0 C0.15285004 7.24651137 -1.874724 11.77406601 -8.08203125 15.99609375 C-11.05797873 17.55376891 -13.66572054 17.79586044 -17 18 C-17.33 17.34 -17.66 16.68 -18 16 C-15.36 15.01 -12.72 14.02 -10 13 C-10 12.34 -10 11.68 -10 11 C-8.02 11 -6.04 11 -4 11 C-4 9.02 -4 7.04 -4 5 C-3.34 5 -2.68 5 -2 5 C-2 4.01 -2 3.02 -2 2 C-1.34 2 -0.68 2 0 2 C0 1.34 0 0.68 0 0 Z " fill="#C3574D" transform="translate(311,250)"/>
<path d="M0 0 C1.01771484 0.01353516 2.03542969 0.02707031 3.08398438 0.04101562 C5.57738214 0.0761339 8.06965512 0.12531441 10.5625 0.1875 C7.72013617 1.79817284 5.71486457 2.4322328 2.453125 2.3828125 C1.69902344 2.37636719 0.94492187 2.36992187 0.16796875 2.36328125 C-0.99798828 2.33814453 -0.99798828 2.33814453 -2.1875 2.3125 C-2.98027344 2.30347656 -3.77304687 2.29445313 -4.58984375 2.28515625 C-6.53919281 2.26167012 -8.48838575 2.22580137 -10.4375 2.1875 C-10.4375 2.8475 -10.4375 3.5075 -10.4375 4.1875 C-14.0675 4.8475 -17.6975 5.5075 -21.4375 6.1875 C-14.95794073 -0.29205927 -8.72380121 -0.22135865 0 0 Z " fill="#C05C50" transform="translate(370.4375,312.8125)"/>
<path d="M0 0 C0 0.66 0 1.32 0 2 C-0.66 2 -1.32 2 -2 2 C-2 2.66 -2 3.32 -2 4 C-2.99 4.495 -2.99 4.495 -4 5 C-5.13350534 7.01669827 -5.13350534 7.01669827 -6 9 C-6.99 8.67 -7.98 8.34 -9 8 C-9.4021875 9.1446875 -9.4021875 9.1446875 -9.8125 10.3125 C-10.94424112 12.87380884 -11.91223401 14.19692938 -14 16 C-14.99 15.34 -15.98 14.68 -17 14 C-5.62944162 0 -5.62944162 0 0 0 Z " fill="#CB6053" transform="translate(122,293)"/>
<path d="M0 0 C0.33 0 0.66 0 1 0 C1.33 6.93 1.66 13.86 2 21 C2.66 21 3.32 21 4 21 C4.09087891 22.03060547 4.09087891 22.03060547 4.18359375 23.08203125 C4.26738281 23.98308594 4.35117188 24.88414062 4.4375 25.8125 C4.51871094 26.70582031 4.59992188 27.59914063 4.68359375 28.51953125 C4.93489767 31.12743559 4.93489767 31.12743559 6 34 C5.34 34.66 4.68 35.32 4 36 C0.56174964 27.32962953 -0.14045962 19.92018542 -0.0625 10.625 C-0.05798828 9.60277344 -0.05347656 8.58054687 -0.04882812 7.52734375 C-0.037103 5.01816806 -0.02069176 2.5091151 0 0 Z " fill="#C56458" transform="translate(96,328)"/>
<path d="M0 0 C1.1328125 1.71875 1.1328125 1.71875 2 4 C0.2891114 9.00919961 -2.98248954 13.57767628 -7 17 C-7 15.35 -7 13.7 -7 12 C-6.34 12 -5.68 12 -5 12 C-5.20625 11.401875 -5.4125 10.80375 -5.625 10.1875 C-6 8 -6 8 -4 5 C-3.34 5 -2.68 5 -2 5 C-1.855625 4.360625 -1.71125 3.72125 -1.5625 3.0625 C-1 1 -1 1 0 0 Z " fill="#C64A3A" transform="translate(311,151)"/>
<path d="M0 0 C1.32 0 2.64 0 4 0 C7.22265625 5.2734375 7.22265625 5.2734375 8 7 C7.67 7.66 7.34 8.32 7 9 C6.34 8.01 5.68 7.02 5 6 C3.35 6.66 1.7 7.32 0 8 C0 7.34 0 6.68 0 6 C-1.98 6 -3.96 6 -6 6 C-4 4 -2 2 0 0 Z " fill="#C4564A" transform="translate(174,360)"/>
<path d="M0 0 C0.98613281 0.00322266 1.97226562 0.00644531 2.98828125 0.00976562 C4.02082031 0.01814453 5.05335938 0.02652344 6.1171875 0.03515625 C7.67759766 0.04192383 7.67759766 0.04192383 9.26953125 0.04882812 C11.84380712 0.06063673 14.41796896 0.0771055 16.9921875 0.09765625 C16.9921875 0.42765625 16.9921875 0.75765625 16.9921875 1.09765625 C10.06379257 3.27127035 3.23626004 3.77152346 -4.0078125 3.09765625 C-4.9978125 2.43765625 -5.9878125 1.77765625 -7.0078125 1.09765625 C-4.50284246 -0.15482877 -2.79927976 -0.01608781 0 0 Z " fill="#C86051" transform="translate(369.0078125,390.90234375)"/>
<path d="M0 0 C0.66 0.33 1.32 0.66 2 1 C2 1.99 2 2.98 2 4 C0.02 4.33 -1.96 4.66 -4 5 C-4 5.66 -4 6.32 -4 7 C-4.99 7 -5.98 7 -7 7 C-7.33 7.66 -7.66 8.32 -8 9 C-9.65 9 -11.3 9 -13 9 C-13.33 9.99 -13.66 10.98 -14 12 C-14.99 12 -15.98 12 -17 12 C-15.86494095 8.59482286 -15.4471812 8.37976225 -12.47265625 6.703125 C-11.76302734 6.30222656 -11.05339844 5.90132812 -10.32226562 5.48828125 C-9.57654297 5.07964844 -8.83082031 4.67101562 -8.0625 4.25 C-7.32064453 3.82589844 -6.57878906 3.40179688 -5.81445312 2.96484375 C-1.6907103 0.66930604 -1.6907103 0.66930604 0 0 Z " fill="#CD635A" transform="translate(329,192)"/>
<path d="M0 0 C3.23212968 3.8092957 5.8683452 7.49073024 8 12 C7.25 14.4375 7.25 14.4375 6 16 C5.34 16 4.68 16 4 16 C3.34 14.68 2.68 13.36 2 12 C1.34 12 0.68 12 0 12 C0.185625 11.505 0.37125 11.01 0.5625 10.5 C1.20139296 6.84918311 0.54905291 3.66035276 0 0 Z " fill="#C83E2B" transform="translate(280,320)"/>
<path d="M0 0 C3.92312073 3.92312073 3.05630025 10.18631527 3.0625 15.4375 C3.04657422 17.29171531 3.02740022 19.14591875 3 21 C2.01 20.67 1.02 20.34 0 20 C-1.25917208 14.54358766 -1.5682175 8.136435 1 3 C0.34 3 -0.32 3 -1 3 C-0.67 2.01 -0.34 1.02 0 0 Z " fill="#C75949" transform="translate(403,337)"/>
<path d="M0 0 C2.77831809 2.61803051 4.88084669 5.10879178 6.75 8.4375 C7.17796875 9.17871094 7.6059375 9.91992188 8.046875 10.68359375 C9.11850723 13.28801142 9.17711027 15.21051325 9 18 C8.01 17.34 7.02 16.68 6 16 C6 15.01 6 14.02 6 13 C5.01 12.67 4.02 12.34 3 12 C2.05078125 9.27734375 2.05078125 9.27734375 1.3125 5.9375 C1.06113281 4.83277344 0.80976563 3.72804688 0.55078125 2.58984375 C0.36902344 1.73519531 0.18726563 0.88054687 0 0 Z " fill="#C15448" transform="translate(265,296)"/>
<path d="M0 0 C0.33 0 0.66 0 1 0 C1 4.62 1 9.24 1 14 C1.66 14 2.32 14 3 14 C3.63394697 18.04141194 4.12404452 21.9065307 4 26 C4.99 26.33 5.98 26.66 7 27 C6.67 28.32 6.34 29.64 6 31 C-1.15116252 22.44664875 -0.38798676 10.51875204 0 0 Z " fill="#C96E62" transform="translate(144,130)"/>
<path d="M0 0 C0.97591583 3.38317487 0.85856655 5.5657338 0 9 C-0.66 9 -1.32 9 -2 9 C-2 10.98 -2 12.96 -2 15 C-3.65 15.66 -5.3 16.32 -7 17 C-5.71383443 10.56917213 -3.39374748 5.59579736 0 0 Z " fill="#C86454" transform="translate(104,308)"/>
<path d="M0 0 C0.66 0 1.32 0 2 0 C2.433125 0.9590625 2.433125 0.9590625 2.875 1.9375 C3.82823451 4.15206079 3.82823451 4.15206079 6 5 C6.8515625 7.28515625 6.8515625 7.28515625 7.625 10.0625 C7.88539063 10.98160156 8.14578125 11.90070313 8.4140625 12.84765625 C8.60742188 13.55792969 8.80078125 14.26820313 9 15 C8.01 15.495 8.01 15.495 7 16 C0.29612756 5.62642369 0.29612756 5.62642369 0 0 Z " fill="#C65C4F" transform="translate(334,365)"/>
<path d="M0 0 C-0.66 1.65 -1.32 3.3 -2 5 C-2.66 4.01 -3.32 3.02 -4 2 C-4 2.66 -4 3.32 -4 4 C-5.45463481 4.38909985 -6.91391207 4.76088029 -8.375 5.125 C-9.18710938 5.33382813 -9.99921875 5.54265625 -10.8359375 5.7578125 C-11.55007812 5.83773438 -12.26421875 5.91765625 -13 6 C-13.66 5.34 -14.32 4.68 -15 4 C-13.06767179 3.13419713 -11.12892806 2.28270059 -9.1875 1.4375 C-8.10855469 0.96183594 -7.02960938 0.48617188 -5.91796875 -0.00390625 C-3 -1 -3 -1 0 0 Z " fill="#C8584A" transform="translate(137,288)"/>
<path d="M0 0 C2.625 1.6875 2.625 1.6875 3.625 4.6875 C1.15 4.1925 1.15 4.1925 -1.375 3.6875 C-1.375 3.0275 -1.375 2.3675 -1.375 1.6875 C-8.93907533 1.48160279 -8.93907533 1.48160279 -16.375 2.6875 C-11.79773403 -2.32569606 -6.15988364 -2.3955103 0 0 Z " fill="#C26157" transform="translate(216.375,287.3125)"/>
<path d="M0 0 C5.65394631 -0.34615998 9.03006806 0.56574762 14 3 C14 3.66 14 4.32 14 5 C4.85154314 5.62851994 4.85154314 5.62851994 1.375 3.0625 C0 1 0 1 0 0 Z " fill="#C25144" transform="translate(168,315)"/>
<path d="M0 0 C0.33 0 0.66 0 1 0 C2.42625566 7.41143564 3.30071865 14.44862068 3 22 C2.34 22 1.68 22 1 22 C0.63491323 19.45947886 0.28268543 16.9182372 -0.0625 14.375 C-0.16626953 13.66214844 -0.27003906 12.94929687 -0.37695312 12.21484375 C-0.95108834 7.89893076 -0.97103611 4.30515309 0 0 Z " fill="#C35B48" transform="translate(234,130)"/>
<path d="M0 0 C0.33 0 0.66 0 1 0 C1 6.93 1 13.86 1 21 C-1.475 20.01 -1.475 20.01 -4 19 C-3.34 18.34 -2.68 17.68 -2 17 C-1.57157281 14.01272872 -1.57157281 14.01272872 -1.4375 10.625 C-1.04353353 3.5014431 -1.04353353 3.5014431 0 0 Z " fill="#AE4134" transform="translate(182,298)"/>
<path d="M0 0 C3.3 0.33 6.6 0.66 10 1 C10 1.66 10 2.32 10 3 C11.32 3.66 12.64 4.32 14 5 C14 5.66 14 6.32 14 7 C14.66 7 15.32 7 16 7 C16 8.65 16 10.3 16 12 C15.01 12.495 15.01 12.495 14 13 C13.78085937 12.45730469 13.56171875 11.91460937 13.3359375 11.35546875 C11.63122392 7.50946859 10.65127893 5.40704933 7 3.125 C6.01 2.75375 5.02 2.3825 4 2 C2.68 1.34 1.36 0.68 0 0 Z " fill="#CB695E" transform="translate(371,329)"/>
<path d="M0 0 C-0.33 0.99 -0.66 1.98 -1 3 C-1.99 3.33 -2.98 3.66 -4 4 C-5.88455518 5.85978416 -5.88455518 5.85978416 -7.6875 8.0625 C-8.62142578 9.16271484 -8.62142578 9.16271484 -9.57421875 10.28515625 C-10.04472656 10.85105469 -10.51523438 11.41695312 -11 12 C-11.66 11.01 -12.32 10.02 -13 9 C-4.25 0 -4.25 0 0 0 Z " fill="#C25146" transform="translate(255,103)"/>
<path d="M0 0 C0 1.65 0 3.3 0 5 C7.92 5 15.84 5 24 5 C24 5.33 24 5.66 24 6 C15.42 6 6.84 6 -2 6 C-2.66 4.68 -3.32 3.36 -4 2 C-1 0 -1 0 0 0 Z " fill="#C54436" transform="translate(297,384)"/>
<path d="M0 0 C0.33 1.32 0.66 2.64 1 4 C-0.98 4.33 -2.96 4.66 -5 5 C-4.67 5.99 -4.34 6.98 -4 8 C-7.3 8.33 -10.6 8.66 -14 9 C-12.54692845 6.09385689 -10.40708052 5.44301921 -7.5625 3.9375 C-6.57378906 3.41027344 -5.58507812 2.88304687 -4.56640625 2.33984375 C-3.05026294 1.54831079 -1.52976207 0.76488103 0 0 Z " fill="#CC6152" transform="translate(352,179)"/>
<path d="M0 0 C5.42096702 1.35524176 10.0778687 3.36634013 15 6 C14.34 6.66 13.68 7.32 13 8 C8.87763355 7.65646946 5.52265194 6.11359117 2 4 C0.625 1.8125 0.625 1.8125 0 0 Z " fill="#C24E41" transform="translate(117,382)"/>
<path d="M0 0 C1.17949219 0.10183594 2.35898438 0.20367187 3.57421875 0.30859375 C4.47785156 0.39238281 5.38148438 0.47617187 6.3125 0.5625 C6.3125 0.8925 6.3125 1.2225 6.3125 1.5625 C5.66023438 1.59988281 5.00796875 1.63726562 4.3359375 1.67578125 C-1.04606729 2.08062232 -4.92898361 2.82635307 -9.6875 5.5625 C-10.3475 5.5625 -11.0075 5.5625 -11.6875 5.5625 C-11.6875 4.5725 -11.6875 3.5825 -11.6875 2.5625 C-11.0275 2.5625 -10.3675 2.5625 -9.6875 2.5625 C-9.6875 1.9025 -9.6875 1.2425 -9.6875 0.5625 C-6.14075997 -0.61974668 -3.71227005 -0.33079634 0 0 Z " fill="#CF6354" transform="translate(145.6875,306.4375)"/>
<path d="M0 0 C1.5843317 0.08768248 3.16753567 0.19587329 4.75 0.3125 C6.07257813 0.39951172 6.07257813 0.39951172 7.421875 0.48828125 C10.32303774 1.0641181 11.79225607 2.07596148 14 4 C13.67 4.33 13.34 4.66 13 5 C8.26455717 4.60537976 4.34057042 4.03464238 0 2 C0 1.34 0 0.68 0 0 Z " fill="#C45E51" transform="translate(278,97)"/>
<path d="M0 0 C0.66 0.99 1.32 1.98 2 3 C1.34 3 0.68 3 0 3 C0 3.66 0 4.32 0 5 C-0.66 5 -1.32 5 -2 5 C-2.33 4.34 -2.66 3.68 -3 3 C-3.33 3.66 -3.66 4.32 -4 5 C-7 4 -7 4 -8.1875 1.9375 C-8.5896875 0.9784375 -8.5896875 0.9784375 -9 0 C-5.68518735 -1.10493755 -3.33868884 -1.05432279 0 0 Z " fill="#CF4C3E" transform="translate(130,363)"/>
<path d="M0 0 C1.32 0 2.64 0 4 0 C4.99 1.98 5.98 3.96 7 6 C2.91556885 7.53166168 -0.79455657 6.63081652 -5 6 C-2.8614515 3.8614515 -1.86724686 3.57344937 1 3 C0.67 2.01 0.34 1.02 0 0 Z " fill="#C75646" transform="translate(165,173)"/>
<path d="M0 0 C1.32 0.66 2.64 1.32 4 2 C2.02 2.99 2.02 2.99 0 4 C0 4.66 0 5.32 0 6 C-1.4609375 7.2890625 -1.4609375 7.2890625 -3.375 8.625 C-4.00148437 9.07101563 -4.62796875 9.51703125 -5.2734375 9.9765625 C-7 11 -7 11 -9 11 C-7.99328314 7.97984943 -7.451644 6.90683422 -5 5 C-3.68 5 -2.36 5 -1 5 C-1.33 4.01 -1.66 3.02 -2 2 C-1.34 1.34 -0.68 0.68 0 0 Z " fill="#C46256" transform="translate(213,164)"/>
<path d="M0 0 C2 3 2 3 2 5 C0.03125 6.5078125 0.03125 6.5078125 -2.5 8.125 C-3.3353125 8.66382813 -4.170625 9.20265625 -5.03125 9.7578125 C-5.6809375 10.16773438 -6.330625 10.57765625 -7 11 C-7.66 10.67 -8.32 10.34 -9 10 C-8.34 8.68 -7.68 7.36 -7 6 C-5.68 6 -4.36 6 -3 6 C-3 5.01 -3 4.02 -3 3 C-2.34 3 -1.68 3 -1 3 C-0.67 2.01 -0.34 1.02 0 0 Z " fill="#C95A52" transform="translate(301,165)"/>
<path d="M0 0 C0.66 0.33 1.32 0.66 2 1 C2 1.99 2 2.98 2 4 C2.66 4 3.32 4 4 4 C4.66 5.65 5.32 7.3 6 9 C5.01 9.495 5.01 9.495 4 10 C4 9.34 4 8.68 4 8 C1.03 7.505 1.03 7.505 -2 7 C-1.34 4.69 -0.68 2.38 0 0 Z " fill="#C85649" transform="translate(355,365)"/>
<path d="M0 0 C3.5875213 1.33250791 6.8364623 2.830717 10 5 C10 5.66 10 6.32 10 7 C10.99 7.33 11.98 7.66 13 8 C10 10 10 10 8 10 C8 8.68 8 7.36 8 6 C6.8553125 5.5978125 6.8553125 5.5978125 5.6875 5.1875 C3.12043161 4.05321397 1.76505092 3.13664059 0 1 C0 0.67 0 0.34 0 0 Z " fill="#C9675F" transform="translate(292,101)"/>
<path d="M0 0 C1.5625 1.75 1.5625 1.75 3 4 C2.6875 6.25 2.6875 6.25 2 8 C0.02 8.33 -1.96 8.66 -4 9 C-2.94124926 5.59687262 -1.99097846 2.98646769 0 0 Z " fill="#CA5949" transform="translate(339,328)"/>
<path d="M0 0 C0.33 0.99 0.66 1.98 1 3 C0.34 3.66 -0.32 4.32 -1 5 C-1.66 5 -2.32 5 -3 5 C-3 5.99 -3 6.98 -3 8 C-2.34 7.67 -1.68 7.34 -1 7 C-1.33 8.32 -1.66 9.64 -2 11 C-3.32 10.67 -4.64 10.34 -6 10 C-5.8125 6.6875 -5.8125 6.6875 -5 3 C-2.4375 1.0625 -2.4375 1.0625 0 0 Z " fill="#C4503E" transform="translate(158,179)"/>
<path d="M0 0 C5.42039575 -0.40652968 9.07015675 0.96006486 14 3 C11 5 11 5 9.0625 4.86328125 C2.20512821 3.03205128 2.20512821 3.03205128 0 0 Z " fill="#C65E52" transform="translate(155,263)"/>
<path d="M0 0 C-0.33 0.99 -0.66 1.98 -1 3 C-5.05431692 4.15837626 -7.21812119 3.83691257 -11 2 C-8.0843098 -0.9156902 -3.79153866 -1.89576933 0 0 Z " fill="#C56959" transform="translate(360,260)"/>
<path d="M0 0 C0.66 0 1.32 0 2 0 C0.88059018 4.85077588 -0.1334716 7.777893 -4 11 C-4 9.02 -4 7.04 -4 5 C-3.34 5 -2.68 5 -2 5 C-2 4.01 -2 3.02 -2 2 C-1.34 2 -0.68 2 0 2 C0 1.34 0 0.68 0 0 Z " fill="#C14D43" transform="translate(311,250)"/>
<path d="M0 0 C5.57142857 5.14285714 5.57142857 5.14285714 6 9 C3.03 8.505 3.03 8.505 0 8 C0 5.36 0 2.72 0 0 Z " fill="#C75B49" transform="translate(305,110)"/>
<path d="M0 0 C0.66 0 1.32 0 2 0 C2 1.98 2 3.96 2 6 C1.34 6 0.68 6 0 6 C0 8.31 0 10.62 0 13 C-2 11 -2 11 -2.25 8.1875 C-2.00289113 5.03686185 -1.33686973 2.84084818 0 0 Z " fill="#C05A4C" transform="translate(147,120)"/>
<path d="M0 0 C5.75 1.875 5.75 1.875 8 3 C7.67 4.65 7.34 6.3 7 8 C5.2925002 6.71937515 3.62626404 5.38232443 2 4 C2 3.34 2 2.68 2 2 C1.01 1.67 0.02 1.34 -1 1 C-0.67 0.67 -0.34 0.34 0 0 Z " fill="#BD6356" transform="translate(397,369)"/>
<path d="M0 0 C2.79872437 2.52788007 4.45773019 4.20411134 5 8 C3.35 7.67 1.7 7.34 0 7 C-0.38133299 5.0085944 -0.71325582 3.00720923 -1 1 C-0.67 0.67 -0.34 0.34 0 0 Z " fill="#C86156" transform="translate(259,286)"/>
<path d="M0 0 C1.98 0 3.96 0 6 0 C4.625 2.5 4.625 2.5 3 5 C2.34 5 1.68 5 1 5 C1 5.66 1 6.32 1 7 C0.34 6.67 -0.32 6.34 -1 6 C-0.67 4.02 -0.34 2.04 0 0 Z " fill="#CD6355" transform="translate(397,378)"/>
<path d="M0 0 C0.99 0.495 0.99 0.495 2 1 C2 1.66 2 2.32 2 3 C2.66 3 3.32 3 4 3 C8.09030544 8.14209827 8.09030544 8.14209827 7.75 11.375 C7.5025 11.91125 7.255 12.4475 7 13 C6.67 12.01 6.34 11.02 6 10 C3.99983534 8.79117904 3.99983534 8.79117904 2 8 C2.33 6.68 2.66 5.36 3 4 C2.34 4 1.68 4 1 4 C0.67 2.68 0.34 1.36 0 0 Z " fill="#CE776D" transform="translate(394,321)"/>
<path d="M0 0 C0.66 0 1.32 0 2 0 C2 0.99 2 1.98 2 3 C2.99 3 3.98 3 5 3 C5 6.63 5 10.26 5 14 C4.67 14 4.34 14 4 14 C3.896875 12.948125 3.79375 11.89625 3.6875 10.8125 C3.01750713 7.09708498 2.03743581 5.10044579 0 2 C0 1.34 0 0.68 0 0 Z " fill="#BE4B3C" transform="translate(307,187)"/>
<path d="M0 0 C2.97069541 2.54631035 4.4775751 5.42230149 6 9 C5.67 9.66 5.34 10.32 5 11 C4.34 11 3.68 11 3 11 C0 4.5 0 4.5 0 0 Z " fill="#C76F62" transform="translate(218,114)"/>
<path d="M0 0 C4.29 0 8.58 0 13 0 C13 0.66 13 1.32 13 2 C11.20909747 2.19466332 9.41723495 2.38051213 7.625 2.5625 C6.12839844 2.71912109 6.12839844 2.71912109 4.6015625 2.87890625 C2 3 2 3 0 2 C0 1.34 0 0.68 0 0 Z " fill="#C26052" transform="translate(366,375)"/>
<path d="M0 0 C3.22388187 0.93322896 4.66015657 1.41299771 6.375 4.375 C7.01981848 7.08323761 6.95412881 8.42385222 6 11 C2 4.25 2 4.25 2 2 C1.34 2 0.68 2 0 2 C0 1.34 0 0.68 0 0 Z " fill="#C9665F" transform="translate(274,355)"/>
<path d="M0 0 C2.63886669 3.18483911 5.14494105 6.2898821 7 10 C6.67 10.99 6.34 11.98 6 13 C5.731875 12.38125 5.46375 11.7625 5.1875 11.125 C4.04443152 8.7004767 4.04443152 8.7004767 1 7 C0.3125 3.375 0.3125 3.375 0 0 Z " fill="#C56F60" transform="translate(280,320)"/>
<path d="M0 0 C2.475 0.495 2.475 0.495 5 1 C5.625 3.875 5.625 3.875 6 7 C5.34 7.66 4.68 8.32 4 9 C3.3309224 7.68872739 2.66480194 6.3759455 2 5.0625 C1.62875 4.33160156 1.2575 3.60070312 0.875 2.84765625 C0 1 0 1 0 0 Z " fill="#C7584A" transform="translate(256,324)"/>
<path d="M0 0 C2.64 0.66 5.28 1.32 8 2 C7 4 7 4 5.1875 4.75 C2.50171361 5.05694702 1.2747813 4.38111722 -1 3 C-0.67 2.01 -0.34 1.02 0 0 Z " fill="#C55543" transform="translate(164,288)"/>
<path d="M0 0 C2.75 -0.3125 2.75 -0.3125 6 0 C8.375 2.5 8.375 2.5 10 5 C6.44219804 4.39009109 3.3171411 3.4216319 0 2 C0 1.34 0 0.68 0 0 Z " fill="#C56155" transform="translate(351,387)"/>
<path d="M0 0 C0.99 0.33 1.98 0.66 3 1 C3 1.66 3 2.32 3 3 C3.66 3 4.32 3 5 3 C5 3.66 5 4.32 5 5 C5.66 5 6.32 5 7 5 C7.66 6.32 8.32 7.64 9 9 C6.50638429 7.79618552 4.31856917 6.54571278 2 5 C2 4.34 2 3.68 2 3 C1.34 3 0.68 3 0 3 C0 2.01 0 1.02 0 0 Z " fill="#CC756E" transform="translate(110,376)"/>
<path d="M0 0 C0.66 0.33 1.32 0.66 2 1 C1.34 3.64 0.68 6.28 0 9 C-0.99 9 -1.98 9 -3 9 C-3.33 9.66 -3.66 10.32 -4 11 C-3.39301257 6.87248551 -1.96189209 3.6678852 0 0 Z " fill="#D17A69" transform="translate(151,184)"/>
<path d="M0 0 C2.31 0 4.62 0 7 0 C3.81617671 2.81645906 1.24465971 3.72317437 -3 4 C-3.66 3.34 -4.32 2.68 -5 2 C-3.35 2 -1.7 2 0 2 C0 1.34 0 0.68 0 0 Z " fill="#BF5545" transform="translate(169,387)"/>
<path d="M0 0 C2.31 0 4.62 0 7 0 C7 0.66 7 1.32 7 2 C4.36 2.99 1.72 3.98 -1 5 C-0.67 3.35 -0.34 1.7 0 0 Z " fill="#CE6A5E" transform="translate(362,328)"/>
<path d="M0 0 C1.32 0.33 2.64 0.66 4 1 C3.34 3.31 2.68 5.62 2 8 C1.71125 7.38125 1.4225 6.7625 1.125 6.125 C0.06279958 3.86674235 0.06279958 3.86674235 -2 2 C-1.34 2 -0.68 2 0 2 C0 1.34 0 0.68 0 0 Z " fill="#CE564B" transform="translate(179,295)"/>
<path d="M0 0 C0 0.66 0 1.32 0 2 C-0.66 2 -1.32 2 -2 2 C-2 2.66 -2 3.32 -2 4 C-3.98 4.99 -5.96 5.98 -8 7 C-7.8125 5.1875 -7.8125 5.1875 -7 3 C-2.82142857 0 -2.82142857 0 0 0 Z " fill="#C66C5C" transform="translate(122,293)"/>
<path d="M0 0 C0.66 0.33 1.32 0.66 2 1 C2 2.32 2 3.64 2 5 C2.66 5 3.32 5 4 5 C4 6.32 4 7.64 4 9 C3.34 9 2.68 9 2 9 C0.4375 6.1875 0.4375 6.1875 -1 3 C-0.67 2.01 -0.34 1.02 0 0 Z " fill="#C56156" transform="translate(149,251)"/>
<path d="M0 0 C2.64 0 5.28 0 8 0 C8.66 1.32 9.32 2.64 10 4 C3.47692308 3.38461538 3.47692308 3.38461538 1.0625 1.4375 C0.711875 0.963125 0.36125 0.48875 0 0 Z " fill="#CA5A47" transform="translate(250,172)"/>
<path d="M0 0 C0.99 0 1.98 0 3 0 C3.433125 1.2065625 3.433125 1.2065625 3.875 2.4375 C4.73262568 5.1326468 4.73262568 5.1326468 7 6 C6.34 6.66 5.68 7.32 5 8 C0 2.25 0 2.25 0 0 Z " fill="#C76D63" transform="translate(151,161)"/>
<path d="M0 0 C0.66 0.33 1.32 0.66 2 1 C1.25 2.9375 1.25 2.9375 0 5 C-2.125 5.75 -2.125 5.75 -4 6 C-4 5.34 -4 4.68 -4 4 C-4.66 3.67 -5.32 3.34 -6 3 C-4.03533587 1.93224776 -2.03144641 0.93446535 0 0 Z " fill="#CA654E" transform="translate(259,99)"/>
<path d="M0 0 C0.66 0.33 1.32 0.66 2 1 C0.68 1.33 -0.64 1.66 -2 2 C-1.67 3.65 -1.34 5.3 -1 7 C-2.32 7 -3.64 7 -5 7 C-5.33 5.68 -5.66 4.36 -6 3 C-4.03533587 1.93224776 -2.03144641 0.93446535 0 0 Z " fill="#D26F5F" transform="translate(169,99)"/>
<path d="M0 0 C2.64 0 5.28 0 8 0 C8 0.99 8 1.98 8 3 C5.03 2.67 2.06 2.34 -1 2 C-0.67 1.34 -0.34 0.68 0 0 Z " fill="#BD3C27" transform="translate(171,99)"/>
<path d="M0 0 C0.99 0.33 1.98 0.66 3 1 C3 1.66 3 2.32 3 3 C3.99 3.33 4.98 3.66 6 4 C6.6875 6.0625 6.6875 6.0625 7 8 C6.01 8 5.02 8 4 8 C2 5 2 5 2 2 C1.34 2 0.68 2 0 2 C0 1.34 0 0.68 0 0 Z " fill="#C76C5F" transform="translate(268,345)"/>
<path d="M0 0 C1.258125 0.12375 2.51625 0.2475 3.8125 0.375 C4.87404297 0.47941406 4.87404297 0.47941406 5.95703125 0.5859375 C8 1 8 1 11 3 C9.4375 4.25 9.4375 4.25 7 5 C4.42998985 3.93237266 2.3469597 2.53455057 0 1 C0 0.67 0 0.34 0 0 Z " fill="#C66559" transform="translate(332,251)"/>
<path d="M0 0 C1.98 0.66 3.96 1.32 6 2 C4.1875 3.5625 4.1875 3.5625 2 5 C1.01 4.67 0.02 4.34 -1 4 C-0.67 2.68 -0.34 1.36 0 0 Z " fill="#CB5C49" transform="translate(198,99)"/>
<path d="M0 0 C1.89213369 2.38573379 3.02391783 4.07175348 4 7 C3.01 7.495 3.01 7.495 2 8 C1.34 7.67 0.68 7.34 0 7 C-1.26229508 2.52459016 -1.26229508 2.52459016 0 0 Z " fill="#C95F56" transform="translate(276,313)"/>
<path d="M0 0 C1.32 0 2.64 0 4 0 C3.34 1.65 2.68 3.3 2 5 C0.68 4.34 -0.64 3.68 -2 3 C-1.34 2.01 -0.68 1.02 0 0 Z " fill="#C85247" transform="translate(107,304)"/>
<path d="M0 0 C0.33 1.32 0.66 2.64 1 4 C-1.64 4.33 -4.28 4.66 -7 5 C-4.87219421 2.65941363 -2.88437779 1.29299694 0 0 Z " fill="#CD7166" transform="translate(352,179)"/>
<path d="M0 0 C6.52307692 -0.36923077 6.52307692 -0.36923077 8.9375 1.5 C9.288125 1.995 9.63875 2.49 10 3 C7.69 2.67 5.38 2.34 3 2 C2.67 2.66 2.34 3.32 2 4 C1.34 2.68 0.68 1.36 0 0 Z " fill="#CD5546" transform="translate(168,315)"/>
<path d="M0 0 C0.66 1.32 1.32 2.64 2 4 C1.01 4.495 1.01 4.495 0 5 C0 5.66 0 6.32 0 7 C-1.32 6.67 -2.64 6.34 -4 6 C-3.01 5.67 -2.02 5.34 -1 5 C-1.33 4.01 -1.66 3.02 -2 2 C-1.34 1.34 -0.68 0.68 0 0 Z " fill="#C33A27" transform="translate(332,191)"/>
<path d="M0 0 C0.66 0.99 1.32 1.98 2 3 C1.125 5.6875 1.125 5.6875 0 8 C-0.99 7.67 -1.98 7.34 -3 7 C-2.1654738 4.49642139 -1.20628008 2.33214148 0 0 Z " fill="#C65449" transform="translate(221,152)"/>
<path d="M0 0 C1.33332095 2.6666419 0.67102033 4.16680303 0 7 C-0.66 7 -1.32 7 -2 7 C-2 7.66 -2 8.32 -2 9 C-2.66 9 -3.32 9 -4 9 C-2.94124926 5.59687262 -1.99097846 2.98646769 0 0 Z " fill="#CD6F67" transform="translate(241,113)"/>
<path d="M0 0 C2.4375 0.6875 2.4375 0.6875 5 2 C5.8125 4.625 5.8125 4.625 6 7 C5.34 7 4.68 7 4 7 C2.02 3.535 2.02 3.535 0 0 Z " fill="#C77167" transform="translate(337,374)"/>
<path d="M0 0 C0.99 0.33 1.98 0.66 3 1 C2.67 2.65 2.34 4.3 2 6 C1.01 6 0.02 6 -1 6 C-0.67 4.02 -0.34 2.04 0 0 Z " fill="#C96654" transform="translate(354,336)"/>
<path d="M0 0 C0.66 0.33 1.32 0.66 2 1 C2.625 3.5625 2.625 3.5625 3 6 C2.01 6 1.02 6 0 6 C-0.66 4.68 -1.32 3.36 -2 2 C-1.34 1.34 -0.68 0.68 0 0 Z " fill="#D55F58" transform="translate(347,319)"/>
<path d="M0 0 C0.99 0.33 1.98 0.66 3 1 C3.33 2.65 3.66 4.3 4 6 C2.35 5.67 0.7 5.34 -1 5 C-0.67 3.35 -0.34 1.7 0 0 Z " fill="#C44D41" transform="translate(391,319)"/>
<path d="M0 0 C2.475 0.495 2.475 0.495 5 1 C4.34 2.32 3.68 3.64 3 5 C2.01 5 1.02 5 0 5 C0 3.35 0 1.7 0 0 Z " fill="#CA5542" transform="translate(295,177)"/>
<path d="M0 0 C0.66 0 1.32 0 2 0 C1.50168276 3.68754757 0.89932357 5.60490662 -2 8 C-2 6.35 -2 4.7 -2 3 C-1.34 3 -0.68 3 0 3 C0 2.01 0 1.02 0 0 Z " fill="#C6574E" transform="translate(306,160)"/>
</svg>
